# xmcd
#
# Track frame offsets: 
#        150
#        16498
#        32218
#        47013
#        65395
#        81213
#        97343
#        109618
#        122875
#        137243
#        153528
#        165380
#        178718
#        193155
#
# Disc length: 2832 seconds
#
# Revision: 5
# Processed by: cddbd v1.5.2PL0 Copyright (c) Steve Scherf et al.
# Submitted via: ExactAudioCopy v0.99pb3
#
DISCID=c30b0e0e
DTITLE=Professor Longhair - Rock 'N' Roll Gumbo
DYEAR=1986
DGENRE=Blues
TTITLE0=Hey Now Baby
TTITLE1=Junco Partner
TTITLE2=Meet Me Tomorrow Night
TTITLE3=Doin' It
TTITLE4=How Long Has That Train Been Gone
TTITLE5=Mean Ol' World
TTITLE6=Rockin' Pneumonia
TTITLE7=Mardi Gras In New Orleans
TTITLE8=Jambalaya
TTITLE9=Tipitina
TTITLE10=Mess Around
TTITLE11=Stag-O-Lee
TTITLE12=Rum And Coke
TTITLE13=(They Call Me) Dr. Professor Longhair
EXTD=YEAR: 1986
EXTT0=
EXTT1=
EXTT2=
EXTT3=
EXTT4=
EXTT5=
EXTT6=
EXTT7=
EXTT8=
EXTT9=
EXTT10=
EXTT11=
EXTT12=
EXTT13=
PLAYORDER=
